<?xml version="1.0" standalone="no"?>
<!DOCTYPE svg PUBLIC "-//W3C//DTD SVG 1.1//EN"
"http://www.w3.org/Graphics/SVG/1.1/DTD/svg11.dtd">

<svg width="255" height="235" view_box="0 0 255 235"
xmlns="http://www.w3.org/2000/svg"
xmlns:link="http://www.w3.org/1999/xlink">\n\n<desc>Généré par Mocodo 2.3.7 le Sat, 04 Sep 2021 06:12:56</desc>

<rect id="frame" x="0" y="0" width="255" height="235" fill="none" stroke="none" stroke-width="0"/>

<!-- Association sort -->
<line x1="117" y1="126" x2="117" y2="34" stroke="#57483d" stroke-width="2"/>
<text x="122.0" y="76" fill="#57483d" font-family="Verdana" font-size="12">0,1</text>
<line x1="207" y1="34" x2="117" y2="34" stroke="#57483d" stroke-width="2"/>
<text x="141" y="51.0" fill="#57483d" font-family="Verdana" font-size="12">0,N</text>
<g id="association-sort">
	<path d="M 122 9 a 14 14 90 0 1 14 14 V 34 h -38 V 23 a 14 14 90 0 1 14 -14" fill="#c6aea5" stroke="#c6aea5" stroke-width="0"/>
	<path d="M 136 34.0 v 11 a 14 14 90 0 1 -14 14 H 112 a 14 14 90 0 1 -14 -14 V 34.0 H 38" fill="#d3b5b2" stroke="#d3b5b2" stroke-width="0"/>
	<rect x="98" y="9" width="38" height="50" fill="none" rx="14" stroke="none" stroke-width="2"/>
	<line x1="98" y1="34" x2="136" y2="34" stroke="none" stroke-width="1"/>
	<text x="105" y="26.7" fill="#422f2c" font-family="Verdana" font-size="12">sort</text>
</g>

<!-- Association make -->
<line x1="117" y1="126" x2="36" y2="126" stroke="#57483d" stroke-width="2"/>
<text x="65" y="143.0" fill="#57483d" font-family="Verdana" font-size="12">0,N</text>
<line x1="36" y1="34" x2="36" y2="126" stroke="#57483d" stroke-width="2"/>
<text x="41.0" y="76" fill="#57483d" font-family="Verdana" font-size="12">0,1</text>
<g id="association-make">
	<path d="M 46 101 a 14 14 90 0 1 14 14 V 126 h -48 V 115 a 14 14 90 0 1 14 -14" fill="#c6aea5" stroke="#c6aea5" stroke-width="0"/>
	<path d="M 60 126.0 v 11 a 14 14 90 0 1 -14 14 H 26 a 14 14 90 0 1 -14 -14 V 126.0 H 48" fill="#d3b5b2" stroke="#d3b5b2" stroke-width="0"/>
	<rect x="12" y="101" width="48" height="50" fill="none" rx="14" stroke="none" stroke-width="2"/>
	<line x1="12" y1="126" x2="60" y2="126" stroke="none" stroke-width="1"/>
	<text x="19" y="118.7" fill="#422f2c" font-family="Verdana" font-size="12">make</text>
</g>

<!-- Association store -->
<line x1="207" y1="201" x2="207" y2="126" stroke="#57483d" stroke-width="2"/>
<text x="212.0" y="168" fill="#57483d" font-family="Verdana" font-size="12">0,1</text>
<line x1="117" y1="126" x2="207" y2="126" stroke="#57483d" stroke-width="2"/>
<text x="147" y="143.0" fill="#57483d" font-family="Verdana" font-size="12">0,N</text>
<g id="association-store">
	<path d="M 216 101 a 14 14 90 0 1 14 14 V 126 h -46 V 115 a 14 14 90 0 1 14 -14" fill="#c6aea5" stroke="#c6aea5" stroke-width="0"/>
	<path d="M 230 126.0 v 11 a 14 14 90 0 1 -14 14 H 198 a 14 14 90 0 1 -14 -14 V 126.0 H 46" fill="#d3b5b2" stroke="#d3b5b2" stroke-width="0"/>
	<rect x="184" y="101" width="46" height="50" fill="none" rx="14" stroke="none" stroke-width="2"/>
	<line x1="184" y1="126" x2="230" y2="126" stroke="none" stroke-width="1"/>
	<text x="191" y="118.7" fill="#422f2c" font-family="Verdana" font-size="12">store</text>
</g>

<!-- Entity CATEGORY -->
<g id="entity-CATEGORY">
	<g id="frame-CATEGORY">
		<rect x="168" y="9" width="78" height="25" fill="#cbcbb5" stroke="#cbcbb5" stroke-width="0"/>
		<rect x="168" y="34.0" width="78" height="25" fill="#e4e3b4" stroke="#e4e3b4" stroke-width="0"/>
		<rect x="168" y="9" width="78" height="50" fill="none" stroke="none" stroke-width="2"/>
		<line x1="168" y1="34" x2="246" y2="34" stroke="none" stroke-width="1"/>
	</g>
	<text x="173" y="26.7" fill="#422f2c" font-family="Verdana" font-size="12">CATEGORY</text>
	<text x="173" y="51.8" fill="#57483d" font-family="Verdana" font-size="12">name</text>
	<line x1="173" y1="54" x2="208" y2="54" stroke="#57483d" stroke-width="1"/>
</g>

<!-- Entity ITEM -->
<g id="entity-ITEM">
	<g id="frame-ITEM">
		<rect x="92" y="84" width="50" height="25" fill="#cbcbb5" stroke="#cbcbb5" stroke-width="0"/>
		<rect x="92" y="109.0" width="50" height="59" fill="#e4e3b4" stroke="#e4e3b4" stroke-width="0"/>
		<rect x="92" y="84" width="50" height="84" fill="none" stroke="none" stroke-width="2"/>
		<line x1="92" y1="109" x2="142" y2="109" stroke="none" stroke-width="1"/>
	</g>
	<text x="101" y="101.7" fill="#422f2c" font-family="Verdana" font-size="12">ITEM</text>
	<text x="97" y="126.8" fill="#57483d" font-family="Verdana" font-size="12">name</text>
	<line x1="97" y1="129" x2="132" y2="129" stroke="#57483d" stroke-width="1"/>
	<text x="97" y="143.8" fill="#57483d" font-family="Verdana" font-size="12">brand</text>
	<text x="97" y="160.8" fill="#57483d" font-family="Verdana" font-size="12">details</text>
</g>

<!-- Entity BRAND -->
<g id="entity-BRAND">
	<g id="frame-BRAND">
		<rect x="9" y="9" width="54" height="25" fill="#cbcbb5" stroke="#cbcbb5" stroke-width="0"/>
		<rect x="9" y="34.0" width="54" height="25" fill="#e4e3b4" stroke="#e4e3b4" stroke-width="0"/>
		<rect x="9" y="9" width="54" height="50" fill="none" stroke="none" stroke-width="2"/>
		<line x1="9" y1="34" x2="63" y2="34" stroke="none" stroke-width="1"/>
	</g>
	<text x="14" y="26.7" fill="#422f2c" font-family="Verdana" font-size="12">BRAND</text>
	<text x="14" y="51.8" fill="#57483d" font-family="Verdana" font-size="12">name</text>
	<line x1="14" y1="54" x2="49" y2="54" stroke="#57483d" stroke-width="1"/>
</g>

<!-- Entity SHELF -->
<g id="entity-SHELF">
	<g id="frame-SHELF">
		<rect x="182" y="176" width="50" height="25" fill="#cbcbb5" stroke="#cbcbb5" stroke-width="0"/>
		<rect x="182" y="201.0" width="50" height="25" fill="#e4e3b4" stroke="#e4e3b4" stroke-width="0"/>
		<rect x="182" y="176" width="50" height="50" fill="none" stroke="none" stroke-width="2"/>
		<line x1="182" y1="201" x2="232" y2="201" stroke="none" stroke-width="1"/>
	</g>
	<text x="187" y="193.7" fill="#422f2c" font-family="Verdana" font-size="12">SHELF</text>
	<text x="187" y="218.8" fill="#57483d" font-family="Verdana" font-size="12">name</text>
	<line x1="187" y1="221" x2="222" y2="221" stroke="#57483d" stroke-width="1"/>
</g>
</svg>