<?xml version="1.0" encoding="utf-8"?>
<svg width="255" height="235" viewBox="0 0 255 235" xmlns="http://www.w3.org/2000/svg">
<rect id="frame" x="0" y="0" width="255" height="235" fill="none" stroke="none" stroke-width="0"/>

<!-- Association sort -->
<g>
	<line x1="117" y1="126" x2="117" y2="34" stroke="#57483d" stroke-width="2"/>
	<text x="122" y="76" fill="#57483d" font-family="Verdana" font-size="12">0,1</text>
	<line x1="207" y1="34" x2="117" y2="34" stroke="#57483d" stroke-width="2"/>
	<text x="142" y="51" fill="#57483d" font-family="Verdana" font-size="12">0,n</text>
	<g>
		<path d="M122 9 a14 14 90 0 1 14 14 V34 h-38 V23 a14 14 90 0 1 14 -14" fill="#c6aea5" stroke="#c6aea5" stroke-width="0"/>
		<path d="M136 34 v11 a14 14 90 0 1 -14 14 H112 a14 14 90 0 1 -14 -14 V34 H38" fill="#d3b5b2" stroke="#d3b5b2" stroke-width="0"/>
		<rect x="98" y="9" width="38" height="50" fill="none" rx="14" stroke="none" stroke-width="2"/>
		<line x1="98" y1="34" x2="136" y2="34" stroke="none" stroke-width="1"/>
		<text x="105" y="26.75" fill="#422f2c" font-family="Verdana" font-size="12">sort</text>
	</g>
</g>

<!-- Association make -->
<g>
	<line x1="117" y1="126" x2="36" y2="126" stroke="#57483d" stroke-width="2"/>
	<text x="66" y="143" fill="#57483d" font-family="Verdana" font-size="12">0,1</text>
	<line x1="36" y1="34" x2="36" y2="126" stroke="#57483d" stroke-width="2"/>
	<text x="41" y="76" fill="#57483d" font-family="Verdana" font-size="12">0,n</text>
	<g>
		<path d="M46 101 a14 14 90 0 1 14 14 V126 h-48 V115 a14 14 90 0 1 14 -14" fill="#c6aea5" stroke="#c6aea5" stroke-width="0"/>
		<path d="M60 126 v11 a14 14 90 0 1 -14 14 H26 a14 14 90 0 1 -14 -14 V126 H48" fill="#d3b5b2" stroke="#d3b5b2" stroke-width="0"/>
		<rect x="12" y="101" width="48" height="50" fill="none" rx="14" stroke="none" stroke-width="2"/>
		<line x1="12" y1="126" x2="60" y2="126" stroke="none" stroke-width="1"/>
		<text x="19" y="118.75" fill="#422f2c" font-family="Verdana" font-size="12">make</text>
	</g>
</g>

<!-- Association store -->
<g>
	<line x1="207" y1="201" x2="207" y2="126" stroke="#57483d" stroke-width="2"/>
	<text x="212" y="168" fill="#57483d" font-family="Verdana" font-size="12">0,N</text>
	<line x1="117" y1="126" x2="207" y2="126" stroke="#57483d" stroke-width="2"/>
	<text x="147" y="143" fill="#57483d" font-family="Verdana" font-size="12">0,1</text>
	<g>
		<path d="M216 101 a14 14 90 0 1 14 14 V126 h-46 V115 a14 14 90 0 1 14 -14" fill="#c6aea5" stroke="#c6aea5" stroke-width="0"/>
		<path d="M230 126 v11 a14 14 90 0 1 -14 14 H198 a14 14 90 0 1 -14 -14 V126 H46" fill="#d3b5b2" stroke="#d3b5b2" stroke-width="0"/>
		<rect x="184" y="101" width="46" height="50" fill="none" rx="14" stroke="none" stroke-width="2"/>
		<line x1="184" y1="126" x2="230" y2="126" stroke="none" stroke-width="1"/>
		<text x="191" y="118.75" fill="#422f2c" font-family="Verdana" font-size="12">store</text>
	</g>
</g>

<!-- Entity BRAND -->
<g>
	<g>
		<rect x="9" y="9" width="54" height="25" fill="#cbcbb5" stroke="#cbcbb5" stroke-width="0" opacity="1"/>
		<rect x="9" y="34" width="54" height="25" fill="#e4e3b4" stroke="#e4e3b4" stroke-width="0" opacity="1"/>
		<rect x="9" y="9" width="54" height="50" fill="none" stroke="none" stroke-width="2" opacity="1"/>
		<line x1="9" y1="34" x2="63" y2="34" stroke="none" stroke-width="1"/>
	</g>
	<text x="14" y="26.75" fill="#422f2c" font-family="Verdana" font-size="12">BRAND</text>
	<text x="14" y="51.8" fill="#57483d" font-family="Verdana" font-size="12">name</text>
	<line x1="14" y1="54" x2="49" y2="54" stroke="#57483d" stroke-width="1"/>
</g>

<!-- Entity CATEGORY -->
<g>
	<g>
		<rect x="168" y="9" width="78" height="25" fill="#cbcbb5" stroke="#cbcbb5" stroke-width="0" opacity="1"/>
		<rect x="168" y="34" width="78" height="25" fill="#e4e3b4" stroke="#e4e3b4" stroke-width="0" opacity="1"/>
		<rect x="168" y="9" width="78" height="50" fill="none" stroke="none" stroke-width="2" opacity="1"/>
		<line x1="168" y1="34" x2="246" y2="34" stroke="none" stroke-width="1"/>
	</g>
	<text x="174" y="26.75" fill="#422f2c" font-family="Verdana" font-size="12">CATEGORY</text>
	<text x="173" y="51.8" fill="#57483d" font-family="Verdana" font-size="12">name</text>
	<line x1="173" y1="54" x2="208" y2="54" stroke="#57483d" stroke-width="1"/>
</g>

<!-- Entity ITEM -->
<g>
	<g>
		<rect x="92" y="84" width="50" height="25" fill="#cbcbb5" stroke="#cbcbb5" stroke-width="0" opacity="1"/>
		<rect x="92" y="109" width="50" height="59" fill="#e4e3b4" stroke="#e4e3b4" stroke-width="0" opacity="1"/>
		<rect x="92" y="84" width="50" height="84" fill="none" stroke="none" stroke-width="2" opacity="1"/>
		<line x1="92" y1="109" x2="142" y2="109" stroke="none" stroke-width="1"/>
	</g>
	<text x="102" y="101.75" fill="#422f2c" font-family="Verdana" font-size="12">ITEM</text>
	<text x="97" y="126.8" fill="#57483d" font-family="Verdana" font-size="12">name</text>
	<line x1="97" y1="129" x2="132" y2="129" stroke="#57483d" stroke-width="1"/>
	<text x="97" y="143.8" fill="#57483d" font-family="Verdana" font-size="12">brand</text>
	<text x="97" y="160.8" fill="#57483d" font-family="Verdana" font-size="12">details</text>
</g>

<!-- Entity SHELF -->
<g>
	<g>
		<rect x="182" y="176" width="50" height="25" fill="#cbcbb5" stroke="#cbcbb5" stroke-width="0" opacity="1"/>
		<rect x="182" y="201" width="50" height="25" fill="#e4e3b4" stroke="#e4e3b4" stroke-width="0" opacity="1"/>
		<rect x="182" y="176" width="50" height="50" fill="none" stroke="none" stroke-width="2" opacity="1"/>
		<line x1="182" y1="201" x2="232" y2="201" stroke="none" stroke-width="1"/>
	</g>
	<text x="188" y="193.75" fill="#422f2c" font-family="Verdana" font-size="12">SHELF</text>
	<text x="187" y="218.8" fill="#57483d" font-family="Verdana" font-size="12">name</text>
	<line x1="187" y1="221" x2="222" y2="221" stroke="#57483d" stroke-width="1"/>
</g>
</svg>